<svg width="614" height="774" viewBox="0 0 614 774" fill="none" xmlns="http://www.w3.org/2000/svg">
<path d="M241.793 -33.5432L318 54.8367L1 129.457" stroke="#202027" stroke-linecap="round"/>
<path d="M708.682 24.8629C718.111 27.4878 980.516 138.421 980.516 138.421L702.111 168.305L877.994 394.117L630.036 239.869L604.772 501.313L534.884 225.988L301.938 356.95L462.405 164.723L177.63 151.746L445.303 71.4835L246.404 -157.584L526.036 -26.0396L590.031 -279.853L618.768 -25.4949L873.48 -200.941L708.682 24.8629Z" fill="#BCEC30" stroke="#202027" stroke-miterlimit="10" stroke-linecap="round"/>
<path d="M232.082 230.457H356L214 409.457" stroke="#202027" stroke-linecap="round"/>
<path d="M372 434.502L485.76 355.457L591.882 773.457" stroke="#202027" stroke-linecap="round"/>
<path d="M450.159 444.457L394 503.222L474 570.457L450.159 444.457Z" fill="#BCEC30" stroke="#202027" stroke-linecap="round"/>
<path d="M492 639.457L526 763.457" stroke="#202027" stroke-linecap="round"/>
</svg>
